<svg width="56" height="63" viewBox="0 0 56 63" fill="none" xmlns="http://www.w3.org/2000/svg">
<path d="M27 45.4394C39.1503 45.4394 49 35.4913 49 23.2197C49 10.9481 39.1503 1 27 1C14.8497 1 5 10.9481 5 23.2197C5 35.4913 14.8497 45.4394 27 45.4394Z" stroke="#A0A0A0" stroke-miterlimit="10"/>
<path d="M10.205 30.622C9.7113 29.7004 9.31109 28.7318 9.01039 27.7305C8.14627 24.8464 8.34568 22.459 8.47678 21.0668C8.67331 18.8589 9.24725 16.7012 10.1736 14.6874C11.9062 10.9676 14.9021 7.98287 18.6284 6.26411C20.2956 5.437 22.0736 4.85491 23.9072 4.53587C26.3252 4.1623 28.7932 4.27169 31.1686 4.85771C33.544 5.44372 35.7797 6.49474 37.7464 7.95002C39.7132 9.40529 41.372 11.236 42.6269 13.3362C43.8819 15.4364 44.7081 17.7646 45.0579 20.1861C45.3505 22.2114 45.2974 24.2717 44.901 26.2792C44.608 27.7363 44.1328 29.1507 43.4866 30.489" stroke="#D4D4D4" stroke-miterlimit="10"/>
<path d="M15.0721 30.8417C14.7071 30.7018 14.3614 30.5156 14.0437 30.2878C13.5876 29.9721 13.3605 29.8151 13.2184 29.588C12.9488 29.1578 13.1131 28.8328 13.2184 27.4185C13.283 26.5544 13.3125 26.1149 13.187 25.7216C13.0226 25.2083 12.8435 25.2102 12.4004 24.37C12.0311 23.661 11.8465 23.3065 11.8354 22.8301C11.8354 22.2541 12.0865 21.8257 12.4632 21.1961C12.7377 20.7401 13.0649 20.3181 13.4381 19.9387C13.2932 19.4237 13.1883 18.8984 13.1242 18.3674C12.9875 17.2374 12.9192 16.6742 13.187 16.1683C13.5378 15.5073 14.3096 15.1029 15.0334 14.7225C15.4784 14.4899 15.7165 14.4271 15.9455 14.1243C16.1745 13.8215 16.1301 13.6055 16.3148 12.8041C16.4994 12.0342 16.6028 11.6501 16.9112 11.2956C17.2061 10.9891 17.5739 10.7623 17.9802 10.6364C18.4821 10.4463 19.0148 10.3505 19.5515 10.3539C20.1812 10.3539 20.412 10.5053 20.7776 10.3225C20.9419 10.2395 20.9973 10.1601 21.3426 9.75569C21.6603 9.35414 22.0072 8.97646 22.3802 8.62569C22.7349 8.33685 23.1565 8.14192 23.6063 8.05884C24.104 7.98644 24.612 8.04041 25.0834 8.21578C25.4693 8.34688 25.6373 8.47982 26.1912 8.62569C26.3955 8.68945 26.6059 8.73153 26.819 8.75125C27.3157 8.77894 27.5262 8.5943 28.4217 8.27856C28.9886 8.081 29.2766 7.98129 29.6163 7.96467C30.017 7.92867 30.4197 8.00474 30.7796 8.1844C31.0473 8.33026 31.0584 8.42812 31.5957 9.00236C32.133 9.57659 32.4081 9.86278 32.7589 10.04C33.1078 10.2012 33.4833 10.297 33.8668 10.3225C34.6515 10.4186 34.7475 10.2321 35.2811 10.3539C35.7727 10.4822 36.2198 10.7427 36.5736 11.1073C36.9184 11.4385 37.1956 11.8336 37.3897 12.2705C37.8255 13.2288 37.4617 13.4393 37.7996 13.9674C38.3425 14.8204 39.4152 14.4585 40.187 15.4759C40.3768 15.7299 40.5154 16.0184 40.5951 16.3252C40.9644 17.5439 40.2923 18.2473 40.6265 19.6248C40.6831 19.8748 40.768 20.1177 40.8795 20.3486C41.077 20.7529 41.2229 20.8397 41.6328 21.4472C41.9079 21.8571 42.0464 22.0676 42.1036 22.2965C42.1794 22.652 42.1578 23.0214 42.0408 23.3656C41.9688 23.637 41.8562 23.9195 41.3503 24.6839C40.5877 25.8435 40.6117 25.7456 40.5009 25.9413C39.779 27.3391 40.933 28.2789 40.1907 29.5492C39.8839 30.0135 39.4871 30.4115 39.0238 30.7199C38.7743 30.8982 38.4991 31.0377 38.2077 31.1335C37.8252 31.2665 37.4216 31.3291 37.0168 31.3181C36.5385 31.2461 36.1877 31.0282 36.1323 30.7494C36.0899 30.5278 36.2468 30.3284 36.4167 30.1198C36.8654 29.5658 37.2716 29.5659 37.7092 29.1135C37.939 28.8701 38.1107 28.5778 38.2114 28.2586C38.015 27.427 37.9731 26.5665 38.0877 25.7198C38.1782 25.0828 38.2483 24.6396 38.5899 24.2426C38.8115 23.986 38.9869 23.9343 39.1235 23.6463C39.3469 23.1773 39.1918 22.6658 39.1235 22.4516C38.8853 21.7001 38.457 21.6669 38.1191 20.9117C37.9535 20.5132 37.8681 20.0859 37.868 19.6543C37.7923 18.3175 38.3573 17.9279 38.0526 17.4238C37.7479 16.9198 37.0574 17.2263 36.1969 16.4803C35.8995 16.2136 35.6546 15.8936 35.475 15.5368C34.958 14.5065 35.3661 13.851 34.8472 13.4005C34.6847 13.2602 34.3819 13.2011 33.7782 13.0866C32.9491 12.9278 32.77 13.0442 32.2696 12.8651C31.8843 12.7146 31.5319 12.4908 31.2319 12.2059C30.6577 11.724 30.5211 11.3787 29.8804 11.0426C29.7441 10.9591 29.596 10.8968 29.4409 10.858C28.6691 10.7195 28.3331 11.5966 27.3988 11.7074C27.0664 11.748 26.7378 11.6409 26.0786 11.4248C25.1074 11.1054 24.9708 10.8155 24.4445 10.858C23.9183 10.9005 23.4936 11.2661 23.2499 11.4876C22.696 11.9899 22.7532 12.337 22.2122 12.7118C21.9084 12.9098 21.5649 13.039 21.2059 13.0903C20.0593 13.3193 19.7103 12.8097 19.258 13.0903C18.6394 13.4725 19.1601 14.5065 18.3144 15.6661C18.1103 15.9412 17.8663 16.1845 17.5907 16.388C16.6674 17.0749 16.0821 16.7905 15.7442 17.2983C15.5485 17.5863 15.6242 18.1606 15.7756 19.3109C15.9123 20.3486 16.0064 20.3559 15.9326 20.6311C15.6962 21.5136 14.7158 21.4583 14.4554 22.3593C14.3933 22.6027 14.3807 22.8561 14.4185 23.1045C14.4562 23.3529 14.5435 23.5911 14.6752 23.805C14.8487 24.0783 15.0168 24.1448 15.4285 24.6839C15.5857 24.8684 15.7231 25.069 15.8384 25.2822C16.108 25.921 15.6353 26.2829 15.6187 27.3243C15.5788 27.8405 15.6993 28.3564 15.964 28.8014C16.0655 28.9584 16.1486 29.0285 16.8115 29.588C17.8399 30.4503 17.971 30.5518 17.9433 30.6959C17.8732 31.0448 16.8355 31.1427 16.2151 31.1039C15.8235 31.0717 15.4386 30.9834 15.0721 30.8417Z" fill="url(#paint0_linear_52_86)"/>
<path d="M26.9723 32.4204C29.2311 32.4204 31.0621 30.5893 31.0621 28.3306C31.0621 26.0718 29.2311 24.2408 26.9723 24.2408C24.7136 24.2408 22.8825 26.0718 22.8825 28.3306C22.8825 30.5893 24.7136 32.4204 26.9723 32.4204Z" stroke="#C3BBAC" stroke-miterlimit="10"/>
<path d="M21.8467 12.9057L25.4767 24.2408" stroke="#C3BBAC" stroke-miterlimit="10"/>
<path d="M26.9022 11.6667V24.0801" stroke="#C3BBAC" stroke-miterlimit="10"/>
<path d="M31.8875 12.8724L28.4938 24.4144" stroke="#C3BBAC" stroke-miterlimit="10"/>
<path d="M35.7299 16.1479L29.7678 25.2785" stroke="#C3BBAC" stroke-miterlimit="10"/>
<path d="M37.9345 20.3559L30.7316 26.3088" stroke="#C3BBAC" stroke-miterlimit="10"/>
<path d="M38.1191 25.4446L31.1803 27.989" stroke="#C3BBAC" stroke-miterlimit="10"/>
<path d="M36.5884 29.9277L30.7482 29.9056" stroke="#C3BBAC" stroke-miterlimit="10"/>
<path d="M23.0579 29.876L17.2159 29.8539" stroke="#C3BBAC" stroke-miterlimit="10"/>
<path d="M17.9028 16.1184L24.0384 25.1049" stroke="#C3BBAC" stroke-miterlimit="10"/>
<path d="M15.9751 20.3264L23.357 26.4177" stroke="#C3BBAC" stroke-miterlimit="10"/>
<path d="M15.7535 25.5001L22.7661 27.8875" stroke="#C3BBAC" stroke-miterlimit="10"/>
<path d="M29.4063 33.242C29.32 33.2743 29.216 33.3072 29.0933 33.3391C28.5734 33.4744 27.8279 33.5637 26.9853 33.5637C26.1427 33.5637 25.3971 33.4744 24.8772 33.3391C24.7545 33.3072 24.6505 33.2743 24.5643 33.242C24.6505 33.2098 24.7545 33.1768 24.8772 33.1449C25.3971 33.0097 26.1427 32.9204 26.9853 32.9204C27.8279 32.9204 28.5734 33.0097 29.0933 33.1449C29.216 33.1768 29.32 33.2098 29.4063 33.242ZM24.2767 33.092C24.277 33.092 24.2798 33.0944 24.2839 33.0993C24.2783 33.0945 24.2763 33.092 24.2767 33.092ZM24.2767 33.3921C24.2763 33.392 24.2783 33.3895 24.2839 33.3847C24.2798 33.3897 24.277 33.3921 24.2767 33.3921ZM29.6866 33.3847C29.6922 33.3895 29.6942 33.392 29.6939 33.3921C29.6935 33.3921 29.6907 33.3897 29.6866 33.3847ZM29.6866 33.0993C29.6907 33.0944 29.6935 33.092 29.6939 33.092C29.6942 33.092 29.6922 33.0945 29.6866 33.0993Z" fill="url(#paint1_linear_52_86)" stroke="#C3C3C3"/>
<path d="M23.0394 30.3229C22.8012 30.2121 22.4486 31.0891 21.6731 31.4547C21.2576 31.6394 20.7979 31.5987 19.8802 31.5009C18.5877 31.3624 18.6062 31.1427 17.8861 31.1556C17.5168 31.1556 17.406 31.2221 15.591 31.8148C14.4241 32.197 13.8369 32.389 13.6744 32.413C12.5666 32.5736 11.9462 32.3355 11.5529 32.7731C11.3631 33.0198 11.2734 33.329 11.3018 33.639C11.3018 34.8226 12.2915 35.827 13.2959 36.7022C14.8759 38.0831 16.6302 39.2508 18.5139 40.1753C19.6956 40.744 20.7296 41.2407 22.2381 41.6358C24.3069 42.1536 26.4507 42.303 28.5713 42.0771C30.4632 41.8724 32.3157 41.396 34.0717 40.6628C35.5761 40.0657 37.0137 39.3125 38.361 38.4157C39.7498 37.4505 40.9933 36.2915 42.0538 34.974C42.2643 34.7136 42.6963 34.1597 42.6188 33.4969C42.6043 33.3319 42.5566 33.1717 42.4786 33.0257C42.4005 32.8797 42.2937 32.7511 42.1646 32.6475C41.8913 32.4629 41.6439 32.5312 41.173 32.5386C40.414 32.5273 39.6633 32.3784 38.9573 32.0991C38.5924 31.945 38.2491 31.7439 37.9363 31.5009C37.7654 31.5394 37.592 31.5659 37.4174 31.5803C37.1505 31.6153 36.8795 31.6047 36.6161 31.5489C36.3724 31.488 36.0769 31.4159 35.9089 31.1556C35.8227 31.0079 35.7793 30.8391 35.7834 30.6681C35.7827 30.5112 35.5246 31.3914 35.7834 30.7125C35.4937 30.4412 34.8511 31.0227 34.2159 31.1789C33.5808 31.3351 32.9141 31.3052 32.2955 31.0928C31.7781 30.9157 31.3095 30.6197 30.9273 30.2287L30.4879 30.9673C30.3017 31.2509 30.0739 31.5048 29.8121 31.7206C29.5305 31.9491 29.2201 32.1397 28.8889 32.2874C28.5916 32.4148 28.3885 32.4573 28.3959 32.5072C28.4033 32.557 28.5436 32.5829 29.1714 32.57C29.4341 32.5013 29.6837 32.3897 29.9099 32.2394C30.0773 32.1273 30.2305 31.9953 30.366 31.8462C30.4835 31.7175 30.5875 31.577 30.6762 31.427C30.7999 31.4732 30.9956 31.5452 31.2301 31.6431C31.784 31.8739 31.9281 31.9736 32.2198 32.0659C32.5503 32.1666 32.8957 32.2097 33.2409 32.1933C33.7398 32.1725 34.2328 32.0766 34.7032 31.9089C34.9636 31.813 35.2317 31.7395 35.5046 31.6892C35.7317 31.6427 35.9647 31.6321 36.1951 31.6578C36.4736 31.6981 36.7412 31.7942 36.9817 31.9403C37.2058 32.0827 37.416 32.2459 37.6095 32.4278C37.9648 32.6963 38.3714 32.8892 38.8041 32.9946C39.306 33.1589 39.8329 33.2333 40.3606 33.2143C40.5581 33.1799 40.7613 33.2251 40.9256 33.3399C40.9533 33.3621 41.0512 33.4451 41.0364 33.5245C41.0124 33.6575 40.7133 33.7092 40.5637 33.7295C40.1114 33.8034 39.6664 33.9141 39.214 33.9806C38.647 34.079 38.1031 34.2811 37.6095 34.577C37.0242 34.9223 36.9429 35.1512 36.4315 35.2842C36.1229 35.3605 35.8026 35.3768 35.4879 35.3322C35.0466 35.2749 34.9636 35.1475 34.2785 34.9629C33.9696 34.8526 33.6473 34.7843 33.3202 34.7598C33.2095 34.7598 32.8586 34.7598 31.9539 35.1531C31.099 35.5224 31.1489 35.6276 30.6614 35.7642C30.2663 35.8769 29.7234 36.0301 29.1843 35.8123C28.7264 35.6276 28.6747 35.3377 28.0986 35.1365C27.8554 35.0562 27.6013 35.0139 27.3453 35.0109C26.6503 34.9763 25.9556 35.0831 25.3031 35.3248C24.5202 35.6202 24.4464 35.8639 23.9035 35.8787C23.538 35.8775 23.1778 35.7915 22.8511 35.6276C22.3544 35.3894 22.3895 35.2066 21.987 34.998C21.3629 34.6767 20.6742 34.7986 20.1646 34.889C19.6106 34.9869 19.6568 35.0848 18.9847 35.2196C18.3939 35.3377 17.9599 35.4245 17.4614 35.2971C17.0515 35.1937 16.9832 35.0441 16.2816 34.6379C15.8386 34.3679 15.3705 34.1416 14.8838 33.9621C13.6283 33.5356 12.537 33.8052 12.5112 33.6169C12.5001 33.5319 12.6958 33.4008 12.8565 33.3491C12.9325 33.3235 13.0127 33.3128 13.0928 33.3177C13.5503 33.286 14.0033 33.2068 14.4444 33.0814C15.178 32.9377 15.8728 32.6401 16.4828 32.2081C16.8872 31.9108 17.0774 31.6541 17.5353 31.5637C17.8065 31.5169 18.0841 31.5225 18.3532 31.5803C18.7761 31.6578 18.8832 31.7871 19.3281 31.9496C19.7179 32.0837 20.1256 32.1584 20.5375 32.1711C20.9401 32.1859 21.4386 32.2044 21.8891 31.9865C22.3396 31.7686 22.408 31.7206 22.408 31.7206C22.6074 31.5932 22.6886 31.5101 22.8474 31.5009C22.9785 31.5003 23.1069 31.5382 23.2167 31.6098C23.3577 31.7041 23.4824 31.8207 23.586 31.9551C23.7754 32.1736 24.0122 32.346 24.2784 32.4592C24.4212 32.5027 24.5687 32.5287 24.7178 32.5367C25.0742 32.5773 25.4878 32.5792 25.4933 32.5367C25.4988 32.4942 25.124 32.4869 24.703 32.2154C24.5547 32.1004 24.4129 31.9771 24.2784 31.8462C24.0358 31.6385 23.8047 31.4178 23.586 31.1851C23.4255 31.0274 23.2881 30.8477 23.1779 30.6515C23.0856 30.4207 23.1041 30.3524 23.0394 30.3229Z" fill="url(#paint2_linear_52_86)" stroke="url(#paint3_linear_52_86)" stroke-miterlimit="10"/>
<path d="M41.9827 34.0505C41.9025 33.9408 41.5715 34.0239 41.0192 34.1648C40.3674 34.3305 39.7381 34.5606 39.1427 34.8509C38.719 35.0323 38.327 35.2682 37.9788 35.5511C37.8673 35.6451 37.7297 35.7892 37.4562 36.0774C37.1164 36.4298 36.8359 36.7399 36.5519 37.083C35.9839 37.769 35.97 37.8991 36.017 37.957C36.064 38.015 36.2296 38.004 36.3358 37.9836C37.3725 37.7847 38.9615 36.6789 39.4476 36.3437C40.2073 35.8221 40.5226 35.6388 41.0593 35.1704C41.4025 34.8666 42.1203 34.24 41.9827 34.0505Z" fill="white" stroke="white" stroke-miterlimit="10"/>
<path d="M32.2095 36.1145C31.542 36.2554 31.1953 36.3285 30.9659 36.6285C30.8831 36.7328 30.8952 36.7675 30.6796 37.4462C30.5588 37.823 30.4691 38.1065 30.3932 38.3096C30.0514 39.1616 29.6111 39.9653 29.0824 40.7022C29.0548 40.7387 28.9806 40.8284 29.0048 40.9015C29.0289 40.9747 29.1151 41.015 29.6774 40.9948C30.0432 40.9869 30.4077 40.9478 30.7675 40.8778C30.9831 40.8357 31.1625 40.7936 31.285 40.7607C31.7835 40.3638 32.206 39.9833 32.551 39.6522C33.0495 39.1711 33.3789 38.798 33.7584 38.3717C34.0329 38.0609 34.2903 37.7335 34.5294 37.3913C35.0175 36.698 35.0296 36.5206 34.9813 36.4108C34.9641 36.3706 34.9106 36.2755 34.2758 36.1419C33.8651 36.0393 33.4438 35.992 33.0219 36.0011C32.7485 36.0142 32.4767 36.0521 32.2095 36.1145Z" fill="white" stroke="white" stroke-miterlimit="10"/>
<path d="M24.1005 37.7398C24.0194 37.5484 23.9866 37.3397 24.005 37.1323C24.0024 36.9654 24.0598 36.8032 24.1665 36.6757C24.3767 36.4773 24.6407 36.6757 25.0541 36.4861C25.2278 36.4053 25.2087 36.3579 25.4015 36.2385C25.7162 36.0638 26.0731 35.9823 26.4315 36.0032C26.8396 36.0195 27.2384 36.1307 27.597 36.3281C27.7499 36.4252 27.9082 36.5131 28.0712 36.5915C28.5524 36.7811 28.8216 36.667 28.9484 36.832C29.0752 36.9971 28.9484 37.2429 28.7834 37.6503C28.3057 38.8057 28.4464 38.681 27.9514 39.7363C27.7795 40.1095 27.5443 40.4494 27.2566 40.7407C27.1219 40.8767 26.9479 40.9658 26.7598 40.9953C26.671 41.005 26.5812 40.9996 26.4941 40.9795C26.366 40.9472 26.2451 40.8906 26.138 40.8127C25.7211 40.5002 25.3025 39.7451 25.3025 39.7451C24.8278 39.125 24.4246 38.4522 24.1005 37.7398Z" fill="white" stroke="white" stroke-miterlimit="10"/>
<path d="M13.0144 34.0509C13.0815 33.9412 13.3556 34.0227 13.8174 34.1637C14.3605 34.3311 14.8841 34.5618 15.3785 34.8515C15.7323 35.0337 16.059 35.2691 16.3482 35.5504C16.4406 35.6444 16.5568 35.7885 16.7862 36.0768C17.0692 36.4309 17.3031 36.7396 17.5399 37.0843C18.0122 37.769 18.0241 37.899 17.9868 37.957C17.9496 38.015 17.8096 38.004 17.7217 37.9836C16.8592 37.7846 15.5364 36.6785 15.1312 36.3432C14.4981 35.8214 14.2374 35.6397 13.7905 35.1712C13.4971 34.8672 12.8997 34.2405 13.0144 34.0509Z" fill="white" stroke="white" stroke-miterlimit="10"/>
<path d="M21.3216 36.11C21.88 36.2517 22.1686 36.3255 22.3606 36.6245C22.4284 36.7312 22.4197 36.7642 22.5987 37.4437C22.6997 37.8223 22.7747 38.1058 22.8382 38.3096C23.1254 39.1678 23.4925 39.9735 23.9306 40.7073C23.9551 40.7422 24.0171 40.8316 23.9955 40.9014C23.9738 40.9713 23.9031 41.016 23.4356 40.9946C23.1303 40.9876 22.8259 40.9486 22.5251 40.8781C22.3447 40.8354 22.1961 40.7927 22.0922 40.7617C21.6751 40.3617 21.323 39.9851 21.0359 39.6492C20.6203 39.1697 20.3447 38.795 20.0344 38.3756C19.8074 38.0639 19.5931 37.736 19.3923 37.3933C18.9854 36.6982 18.9753 36.5216 19.0157 36.4109C19.0301 36.3701 19.0748 36.275 19.603 36.141C19.9468 36.0384 20.2985 35.9915 20.6506 36.0013C20.8761 36.0126 21.1005 36.0489 21.3216 36.11Z" fill="white" stroke="white" stroke-miterlimit="10"/>
<path d="M7.579 48.212V48.421C7.34433 48.4723 7.09133 48.575 6.82 48.729C6.556 48.883 6.27733 49.1323 5.984 49.477L3.916 51.941L4.554 51.028L7.172 55.109C7.27467 55.2777 7.38467 55.4133 7.502 55.516C7.61933 55.6187 7.77333 55.7067 7.964 55.78V56C7.70733 55.9853 7.42133 55.978 7.106 55.978C6.79067 55.9707 6.50467 55.967 6.248 55.967C6.094 55.967 5.907 55.9707 5.687 55.978C5.467 55.978 5.18833 55.9853 4.851 56V55.78C5.15167 55.7653 5.33133 55.725 5.39 55.659C5.456 55.5857 5.43033 55.461 5.313 55.285L3.718 52.7C3.61533 52.5313 3.52367 52.4067 3.443 52.326C3.36233 52.238 3.28167 52.1793 3.201 52.15C3.12033 52.1133 3.014 52.0913 2.882 52.084V51.853C3.20467 51.8457 3.49067 51.7577 3.74 51.589C3.99667 51.4203 4.27533 51.1637 4.576 50.819L5.225 50.038C5.50367 49.708 5.665 49.4257 5.709 49.191C5.76033 48.949 5.71267 48.762 5.566 48.63C5.42667 48.498 5.21033 48.4283 4.917 48.421V48.212C5.10033 48.2193 5.27267 48.2267 5.434 48.234C5.60267 48.234 5.775 48.2377 5.951 48.245C6.13433 48.245 6.33233 48.245 6.545 48.245C6.75767 48.245 6.94833 48.2413 7.117 48.234C7.293 48.2267 7.447 48.2193 7.579 48.212ZM3.773 48.212V48.432C3.53833 48.4393 3.35867 48.4687 3.234 48.52C3.11667 48.564 3.03967 48.652 3.003 48.784C2.96633 48.9087 2.948 49.1067 2.948 49.378V54.834C2.948 55.098 2.96633 55.296 3.003 55.428C3.047 55.56 3.12767 55.648 3.245 55.692C3.36233 55.736 3.53833 55.7653 3.773 55.78V56C3.575 55.9853 3.32567 55.978 3.025 55.978C2.72433 55.9707 2.42 55.967 2.112 55.967C1.76 55.967 1.42633 55.9707 1.111 55.978C0.803 55.978 0.557333 55.9853 0.374 56V55.78C0.608667 55.7653 0.784667 55.736 0.902 55.692C1.01933 55.648 1.09633 55.56 1.133 55.428C1.177 55.296 1.199 55.098 1.199 54.834V49.378C1.199 49.1067 1.177 48.9087 1.133 48.784C1.09633 48.652 1.01567 48.564 0.891 48.52C0.773667 48.4687 0.601333 48.4393 0.374 48.432V48.212C0.557333 48.2193 0.803 48.2267 1.111 48.234C1.42633 48.2413 1.76 48.245 2.112 48.245C2.42 48.245 2.72433 48.2413 3.025 48.234C3.32567 48.2267 3.575 48.2193 3.773 48.212ZM13.9308 48.19L16.6038 55.076C16.7065 55.34 16.8201 55.5233 16.9448 55.626C17.0768 55.7213 17.1941 55.7727 17.2968 55.78V56C17.0768 55.9853 16.8165 55.978 16.5158 55.978C16.2225 55.9707 15.9255 55.967 15.6248 55.967C15.2875 55.967 14.9685 55.9707 14.6678 55.978C14.3671 55.978 14.1288 55.9853 13.9528 56V55.78C14.3268 55.7653 14.5615 55.703 14.6568 55.593C14.7595 55.4757 14.7375 55.23 14.5908 54.856L12.7208 49.741L12.9188 49.455L11.2468 53.811C11.0855 54.2143 10.9865 54.5443 10.9498 54.801C10.9205 55.0577 10.9388 55.2557 11.0048 55.395C11.0781 55.5343 11.1918 55.6333 11.3458 55.692C11.5071 55.7433 11.6978 55.7727 11.9178 55.78V56C11.6758 55.9853 11.4448 55.978 11.2248 55.978C11.0048 55.9707 10.7811 55.967 10.5538 55.967C10.3925 55.967 10.2385 55.9707 10.0918 55.978C9.95248 55.978 9.82781 55.9853 9.71781 56V55.78C9.87181 55.7507 10.0295 55.6517 10.1908 55.483C10.3521 55.3143 10.5098 55.0283 10.6638 54.625L13.1718 48.19C13.2891 48.1973 13.4138 48.201 13.5458 48.201C13.6851 48.201 13.8135 48.1973 13.9308 48.19ZM14.7008 52.832V53.052H11.4228L11.5328 52.832H14.7008ZM22.9111 48.069C23.3438 48.069 23.6774 48.1167 23.9121 48.212C24.1468 48.3 24.3484 48.3953 24.5171 48.498C24.6051 48.5493 24.6748 48.5897 24.7261 48.619C24.7848 48.641 24.8398 48.652 24.8911 48.652C24.9644 48.652 25.0158 48.6117 25.0451 48.531C25.0818 48.4503 25.1111 48.3293 25.1331 48.168H25.3861C25.3788 48.3073 25.3678 48.476 25.3531 48.674C25.3458 48.8647 25.3384 49.1177 25.3311 49.433C25.3311 49.7483 25.3311 50.1627 25.3311 50.676H25.0781C25.0488 50.2947 24.9608 49.9243 24.8141 49.565C24.6674 49.2057 24.4584 48.9123 24.1871 48.685C23.9231 48.4503 23.5968 48.333 23.2081 48.333C22.8561 48.333 22.5664 48.432 22.3391 48.63C22.1118 48.828 21.9981 49.103 21.9981 49.455C21.9981 49.7483 22.0714 50.0013 22.2181 50.214C22.3648 50.4193 22.5774 50.621 22.8561 50.819C23.1421 51.017 23.4868 51.2553 23.8901 51.534C24.2421 51.7613 24.5574 51.9887 24.8361 52.216C25.1148 52.4433 25.3384 52.7 25.5071 52.986C25.6758 53.272 25.7601 53.613 25.7601 54.009C25.7601 54.493 25.6318 54.8927 25.3751 55.208C25.1258 55.5233 24.7958 55.7617 24.3851 55.923C23.9744 56.077 23.5234 56.154 23.0321 56.154C22.5774 56.154 22.2144 56.11 21.9431 56.022C21.6718 55.934 21.4444 55.8423 21.2611 55.747C21.0998 55.6443 20.9751 55.593 20.8871 55.593C20.8138 55.593 20.7588 55.6333 20.7221 55.714C20.6928 55.7947 20.6671 55.9157 20.6451 56.077H20.3921C20.4068 55.901 20.4141 55.6957 20.4141 55.461C20.4214 55.2263 20.4251 54.922 20.4251 54.548C20.4324 54.1667 20.4361 53.6863 20.4361 53.107H20.6891C20.7184 53.591 20.7991 54.0457 20.9311 54.471C21.0704 54.889 21.2794 55.2263 21.5581 55.483C21.8441 55.7397 22.2218 55.868 22.6911 55.868C22.9478 55.868 23.1751 55.824 23.3731 55.736C23.5784 55.6407 23.7434 55.5013 23.8681 55.318C23.9928 55.1347 24.0551 54.9073 24.0551 54.636C24.0551 54.328 23.9818 54.0603 23.8351 53.833C23.6958 53.6057 23.5014 53.393 23.2521 53.195C23.0101 52.997 22.7278 52.7953 22.4051 52.59C22.0604 52.3627 21.7378 52.1353 21.4371 51.908C21.1364 51.6807 20.8944 51.4203 20.7111 51.127C20.5351 50.8337 20.4471 50.4853 20.4471 50.082C20.4471 49.62 20.5608 49.2423 20.7881 48.949C21.0228 48.6483 21.3271 48.4283 21.7011 48.289C22.0824 48.1423 22.4858 48.069 22.9111 48.069ZM36.1593 48.212V48.432C35.9247 48.4613 35.745 48.5237 35.6203 48.619C35.503 48.707 35.426 48.85 35.3893 49.048C35.3527 49.246 35.3343 49.5247 35.3343 49.884V52.799C35.3343 53.2757 35.3013 53.712 35.2353 54.108C35.1693 54.504 35.052 54.845 34.8833 55.131C34.6927 55.4463 34.414 55.6957 34.0473 55.879C33.6807 56.0623 33.215 56.154 32.6503 56.154C32.313 56.154 31.9683 56.1137 31.6163 56.033C31.2643 55.9597 30.949 55.8167 30.6703 55.604C30.4357 55.406 30.256 55.1823 30.1313 54.933C30.0067 54.6837 29.9223 54.3903 29.8783 54.053C29.8343 53.7083 29.8123 53.3013 29.8123 52.832V49.378C29.8123 49.1067 29.7903 48.9087 29.7463 48.784C29.7097 48.652 29.6327 48.564 29.5153 48.52C29.398 48.4687 29.222 48.4393 28.9873 48.432V48.212C29.1707 48.2193 29.4163 48.2267 29.7243 48.234C30.0397 48.2413 30.366 48.245 30.7033 48.245C31.0407 48.245 31.3633 48.2413 31.6713 48.234C31.9867 48.2267 32.247 48.2193 32.4523 48.212V48.432C32.203 48.4393 32.0123 48.4687 31.8803 48.52C31.7557 48.564 31.6713 48.652 31.6273 48.784C31.5833 48.9087 31.5613 49.1067 31.5613 49.378V53.525C31.5613 53.8917 31.5833 54.218 31.6273 54.504C31.6787 54.7827 31.7593 55.0173 31.8693 55.208C31.9867 55.3913 32.1443 55.5307 32.3423 55.626C32.5403 55.7213 32.786 55.769 33.0793 55.769C33.5927 55.769 33.9923 55.648 34.2783 55.406C34.5717 55.164 34.777 54.8303 34.8943 54.405C35.019 53.9723 35.0813 53.4773 35.0813 52.92V50.016C35.0813 49.6127 35.0557 49.3047 35.0043 49.092C34.953 48.872 34.8503 48.7143 34.6963 48.619C34.5497 48.5237 34.3223 48.4613 34.0143 48.432V48.212C34.1537 48.2193 34.337 48.2267 34.5643 48.234C34.7917 48.2413 35.0043 48.245 35.2023 48.245C35.3783 48.245 35.5507 48.2413 35.7193 48.234C35.8953 48.2267 36.042 48.2193 36.1593 48.212ZM48.7637 48.212V48.432C48.529 48.4393 48.353 48.4687 48.2357 48.52C48.1184 48.564 48.0377 48.652 47.9937 48.784C47.957 48.9087 47.9387 49.1067 47.9387 49.378V54.834C47.9387 55.098 47.957 55.296 47.9937 55.428C48.0377 55.56 48.1184 55.648 48.2357 55.692C48.353 55.736 48.529 55.7653 48.7637 55.78V56C48.5584 55.9853 48.298 55.978 47.9827 55.978C47.6747 55.9707 47.3594 55.967 47.0367 55.967C46.6847 55.967 46.3547 55.9707 46.0467 55.978C45.7387 55.978 45.4894 55.9853 45.2987 56V55.78C45.548 55.7653 45.735 55.736 45.8597 55.692C45.9917 55.648 46.0797 55.56 46.1237 55.428C46.1677 55.296 46.1897 55.098 46.1897 54.834V48.883H46.2667L43.5387 56.011H43.3627L40.3927 48.927V54.196C40.3927 54.5993 40.4147 54.911 40.4587 55.131C40.5027 55.3437 40.598 55.4977 40.7447 55.593C40.8987 55.681 41.137 55.7433 41.4597 55.78V56C41.3204 55.9853 41.137 55.978 40.9097 55.978C40.6824 55.9707 40.4697 55.967 40.2717 55.967C40.103 55.967 39.9307 55.9707 39.7547 55.978C39.5787 55.978 39.432 55.9853 39.3147 56V55.78C39.5494 55.7433 39.7254 55.681 39.8427 55.593C39.96 55.505 40.037 55.362 40.0737 55.164C40.1177 54.9587 40.1397 54.68 40.1397 54.328V49.378C40.1397 49.1067 40.1177 48.9087 40.0737 48.784C40.037 48.652 39.9564 48.564 39.8317 48.52C39.7144 48.4687 39.542 48.4393 39.3147 48.432V48.212C39.432 48.2193 39.5787 48.2267 39.7547 48.234C39.9307 48.2413 40.103 48.245 40.2717 48.245C40.587 48.245 40.895 48.2413 41.1957 48.234C41.5037 48.2267 41.775 48.2193 42.0097 48.212L44.3197 53.789L44.0447 54.042L46.2557 48.245C46.3804 48.245 46.5087 48.245 46.6407 48.245C46.7727 48.245 46.9047 48.245 47.0367 48.245C47.3594 48.245 47.6747 48.2413 47.9827 48.234C48.298 48.2267 48.5584 48.2193 48.7637 48.212ZM55.4644 48.212V48.432C55.2297 48.4393 55.0501 48.4687 54.9254 48.52C54.8081 48.564 54.7311 48.652 54.6944 48.784C54.6577 48.9087 54.6394 49.1067 54.6394 49.378V54.834C54.6394 55.098 54.6577 55.296 54.6944 55.428C54.7384 55.56 54.8191 55.648 54.9364 55.692C55.0537 55.736 55.2297 55.7653 55.4644 55.78V56C55.2664 55.9853 55.0171 55.978 54.7164 55.978C54.4157 55.9707 54.1114 55.967 53.8034 55.967C53.4441 55.967 53.1104 55.9707 52.8024 55.978C52.5017 55.978 52.2561 55.9853 52.0654 56V55.78C52.3001 55.7653 52.4761 55.736 52.5934 55.692C52.7107 55.648 52.7877 55.56 52.8244 55.428C52.8684 55.296 52.8904 55.098 52.8904 54.834V49.378C52.8904 49.1067 52.8684 48.9087 52.8244 48.784C52.7877 48.652 52.7071 48.564 52.5824 48.52C52.4651 48.4687 52.2927 48.4393 52.0654 48.432V48.212C52.2561 48.2193 52.5017 48.2267 52.8024 48.234C53.1104 48.2413 53.4441 48.245 53.8034 48.245C54.1114 48.245 54.4157 48.2413 54.7164 48.234C55.0171 48.2267 55.2664 48.2193 55.4644 48.212Z" fill="#777777"/>
<path d="M12.9 62.94V62.845C13.05 62.8417 13.175 62.805 13.275 62.735C13.3783 62.665 13.455 62.5483 13.505 62.385C13.5583 62.225 13.585 62.01 13.585 61.74V58.99C13.585 58.8667 13.575 58.7767 13.555 58.72C13.535 58.66 13.495 58.62 13.435 58.6C13.3783 58.5767 13.2933 58.5633 13.18 58.56V58.46C13.25 58.4633 13.3417 58.4667 13.455 58.47C13.5683 58.4733 13.6867 58.475 13.81 58.475C13.9333 58.475 14.0517 58.4733 14.165 58.47C14.2817 58.4667 14.3783 58.4633 14.455 58.46V58.56C14.3417 58.5633 14.255 58.5767 14.195 58.6C14.1383 58.62 14.1 58.66 14.08 58.72C14.06 58.7767 14.05 58.8667 14.05 58.99V60.82C14.05 60.9567 14.0483 61.105 14.045 61.265C14.0417 61.425 14.0333 61.58 14.02 61.73C14.01 61.88 13.9917 62.0117 13.965 62.125C13.9083 62.3583 13.7883 62.5517 13.605 62.705C13.425 62.8617 13.19 62.94 12.9 62.94ZM18.581 58.46C18.5676 58.5767 18.5576 58.69 18.551 58.8C18.5476 58.91 18.546 58.9933 18.546 59.05C18.546 59.11 18.5476 59.1683 18.551 59.225C18.5543 59.2783 18.5576 59.3233 18.561 59.36H18.446C18.426 59.1633 18.3976 59.0083 18.361 58.895C18.3243 58.7783 18.261 58.6967 18.171 58.65C18.0843 58.6 17.9526 58.575 17.776 58.575H17.361C17.2476 58.575 17.161 58.585 17.101 58.605C17.0443 58.6217 17.006 58.66 16.986 58.72C16.966 58.7767 16.956 58.8667 16.956 58.99V61.47C16.956 61.59 16.966 61.68 16.986 61.74C17.006 61.8 17.0443 61.84 17.101 61.86C17.161 61.8767 17.2476 61.885 17.361 61.885H17.726C17.936 61.885 18.0943 61.8567 18.201 61.8C18.311 61.7433 18.3893 61.6517 18.436 61.525C18.486 61.395 18.5226 61.22 18.546 61H18.661C18.651 61.09 18.646 61.21 18.646 61.36C18.646 61.4233 18.6476 61.515 18.651 61.635C18.6576 61.7517 18.6676 61.8733 18.681 62C18.511 61.9933 18.3193 61.99 18.106 61.99C17.8926 61.9867 17.7026 61.985 17.536 61.985C17.4626 61.985 17.3676 61.985 17.251 61.985C17.1376 61.985 17.0143 61.9867 16.881 61.99C16.7476 61.99 16.6126 61.9917 16.476 61.995C16.3393 61.995 16.2093 61.9967 16.086 62V61.9C16.1993 61.8933 16.2843 61.88 16.341 61.86C16.401 61.84 16.441 61.8 16.461 61.74C16.481 61.68 16.491 61.59 16.491 61.47V58.99C16.491 58.8667 16.481 58.7767 16.461 58.72C16.441 58.66 16.401 58.62 16.341 58.6C16.2843 58.5767 16.1993 58.5633 16.086 58.56V58.46C16.2093 58.4633 16.3393 58.4667 16.476 58.47C16.6126 58.47 16.7476 58.4717 16.881 58.475C17.0143 58.475 17.1376 58.475 17.251 58.475C17.3676 58.475 17.4626 58.475 17.536 58.475C17.6893 58.475 17.8626 58.475 18.056 58.475C18.2526 58.4717 18.4276 58.4667 18.581 58.46ZM17.721 60.17C17.721 60.17 17.721 60.1867 17.721 60.22C17.721 60.2533 17.721 60.27 17.721 60.27H16.806C16.806 60.27 16.806 60.2533 16.806 60.22C16.806 60.1867 16.806 60.17 16.806 60.17H17.721ZM17.866 59.51C17.8526 59.7 17.846 59.845 17.846 59.945C17.8493 60.045 17.851 60.1367 17.851 60.22C17.851 60.3033 17.8526 60.395 17.856 60.495C17.8593 60.595 17.8676 60.74 17.881 60.93H17.766C17.7526 60.8233 17.736 60.72 17.716 60.62C17.6993 60.5167 17.6593 60.4333 17.596 60.37C17.536 60.3033 17.4326 60.27 17.286 60.27V60.17C17.396 60.17 17.4793 60.1483 17.536 60.105C17.596 60.0583 17.6393 60 17.666 59.93C17.6926 59.86 17.711 59.7883 17.721 59.715C17.731 59.6383 17.741 59.57 17.751 59.51H17.866ZM24.537 58.46V58.56C24.4736 58.5733 24.4036 58.6117 24.327 58.675C24.2503 58.735 24.1886 58.8417 24.142 58.995L23.197 62.025C23.1903 62.025 23.1836 62.025 23.177 62.025C23.1703 62.025 23.1636 62.025 23.157 62.025C23.1503 62.025 23.1436 62.025 23.137 62.025C23.1303 62.025 23.1236 62.025 23.117 62.025L22.057 58.88C22.0136 58.75 21.9653 58.665 21.912 58.625C21.8586 58.585 21.8086 58.5633 21.762 58.56V58.46C21.822 58.4633 21.897 58.4667 21.987 58.47C22.077 58.4733 22.1636 58.475 22.247 58.475C22.377 58.475 22.4986 58.4733 22.612 58.47C22.7253 58.4667 22.817 58.4633 22.887 58.46V58.56C22.787 58.5633 22.707 58.5733 22.647 58.59C22.5903 58.6067 22.557 58.6433 22.547 58.7C22.5403 58.7567 22.557 58.85 22.597 58.98L23.342 61.285L23.272 61.345L23.932 59.27C23.992 59.0867 24.0186 58.945 24.012 58.845C24.0086 58.7417 23.972 58.67 23.902 58.63C23.832 58.5867 23.727 58.5633 23.587 58.56V58.46C23.6836 58.4633 23.782 58.4667 23.882 58.47C23.982 58.4733 24.0753 58.475 24.162 58.475C24.2486 58.475 24.3203 58.4733 24.377 58.47C24.4336 58.4667 24.487 58.4633 24.537 58.46ZM21.042 58.46V58.56C20.9553 58.5667 20.892 58.5833 20.852 58.61C20.8153 58.6367 20.797 58.68 20.797 58.74C20.8003 58.7967 20.8186 58.8767 20.852 58.98L21.627 61.345L21.502 61.47L22.202 59.235L22.277 59.355L21.452 62.025C21.4453 62.025 21.4386 62.025 21.432 62.025C21.4253 62.025 21.4186 62.025 21.412 62.025C21.4053 62.025 21.3986 62.025 21.392 62.025C21.3853 62.025 21.3786 62.025 21.372 62.025L20.312 58.88C20.2686 58.75 20.2136 58.665 20.147 58.625C20.0803 58.585 20.0203 58.5633 19.967 58.56V58.46C20.0336 58.4633 20.1153 58.4667 20.212 58.47C20.312 58.4733 20.4086 58.475 20.502 58.475C20.612 58.475 20.7136 58.4733 20.807 58.47C20.9036 58.4667 20.982 58.4633 21.042 58.46ZM28.3124 58.46C28.2991 58.5767 28.2891 58.69 28.2824 58.8C28.2791 58.91 28.2774 58.9933 28.2774 59.05C28.2774 59.11 28.2791 59.1683 28.2824 59.225C28.2858 59.2783 28.2891 59.3233 28.2924 59.36H28.1774C28.1574 59.1633 28.1291 59.0083 28.0924 58.895C28.0558 58.7783 27.9924 58.6967 27.9024 58.65C27.8158 58.6 27.6841 58.575 27.5074 58.575H27.0924C26.9791 58.575 26.8924 58.585 26.8324 58.605C26.7758 58.6217 26.7374 58.66 26.7174 58.72C26.6974 58.7767 26.6874 58.8667 26.6874 58.99V61.47C26.6874 61.59 26.6974 61.68 26.7174 61.74C26.7374 61.8 26.7758 61.84 26.8324 61.86C26.8924 61.8767 26.9791 61.885 27.0924 61.885H27.4574C27.6674 61.885 27.8258 61.8567 27.9324 61.8C28.0424 61.7433 28.1208 61.6517 28.1674 61.525C28.2174 61.395 28.2541 61.22 28.2774 61H28.3924C28.3824 61.09 28.3774 61.21 28.3774 61.36C28.3774 61.4233 28.3791 61.515 28.3824 61.635C28.3891 61.7517 28.3991 61.8733 28.4124 62C28.2424 61.9933 28.0508 61.99 27.8374 61.99C27.6241 61.9867 27.4341 61.985 27.2674 61.985C27.1941 61.985 27.0991 61.985 26.9824 61.985C26.8691 61.985 26.7458 61.9867 26.6124 61.99C26.4791 61.99 26.3441 61.9917 26.2074 61.995C26.0708 61.995 25.9408 61.9967 25.8174 62V61.9C25.9308 61.8933 26.0158 61.88 26.0724 61.86C26.1324 61.84 26.1724 61.8 26.1924 61.74C26.2124 61.68 26.2224 61.59 26.2224 61.47V58.99C26.2224 58.8667 26.2124 58.7767 26.1924 58.72C26.1724 58.66 26.1324 58.62 26.0724 58.6C26.0158 58.5767 25.9308 58.5633 25.8174 58.56V58.46C25.9408 58.4633 26.0708 58.4667 26.2074 58.47C26.3441 58.47 26.4791 58.4717 26.6124 58.475C26.7458 58.475 26.8691 58.475 26.9824 58.475C27.0991 58.475 27.1941 58.475 27.2674 58.475C27.4208 58.475 27.5941 58.475 27.7874 58.475C27.9841 58.4717 28.1591 58.4667 28.3124 58.46ZM27.4524 60.17C27.4524 60.17 27.4524 60.1867 27.4524 60.22C27.4524 60.2533 27.4524 60.27 27.4524 60.27H26.5374C26.5374 60.27 26.5374 60.2533 26.5374 60.22C26.5374 60.1867 26.5374 60.17 26.5374 60.17H27.4524ZM27.5974 59.51C27.5841 59.7 27.5774 59.845 27.5774 59.945C27.5808 60.045 27.5824 60.1367 27.5824 60.22C27.5824 60.3033 27.5841 60.395 27.5874 60.495C27.5908 60.595 27.5991 60.74 27.6124 60.93H27.4974C27.4841 60.8233 27.4674 60.72 27.4474 60.62C27.4308 60.5167 27.3908 60.4333 27.3274 60.37C27.2674 60.3033 27.1641 60.27 27.0174 60.27V60.17C27.1274 60.17 27.2108 60.1483 27.2674 60.105C27.3274 60.0583 27.3708 60 27.3974 59.93C27.4241 59.86 27.4424 59.7883 27.4524 59.715C27.4624 59.6383 27.4724 59.57 27.4824 59.51H27.5974ZM31.3844 58.46V58.56C31.2711 58.5633 31.1844 58.5767 31.1244 58.6C31.0677 58.62 31.0294 58.66 31.0094 58.72C30.9894 58.7767 30.9794 58.8667 30.9794 58.99V61.47C30.9794 61.59 30.9894 61.68 31.0094 61.74C31.0294 61.8 31.0677 61.84 31.1244 61.86C31.1844 61.8767 31.2711 61.885 31.3844 61.885H31.7494C31.9061 61.885 32.0327 61.8683 32.1294 61.835C32.2294 61.8017 32.3077 61.75 32.3644 61.68C32.4244 61.6067 32.4694 61.51 32.4994 61.39C32.5294 61.27 32.5527 61.1233 32.5694 60.95H32.6844C32.6744 61.0533 32.6694 61.19 32.6694 61.36C32.6694 61.4233 32.6711 61.515 32.6744 61.635C32.6811 61.7517 32.6911 61.8733 32.7044 62C32.5344 61.9933 32.3427 61.99 32.1294 61.99C31.9161 61.9867 31.7261 61.985 31.5594 61.985C31.4861 61.985 31.3911 61.985 31.2744 61.985C31.1611 61.985 31.0377 61.9867 30.9044 61.99C30.7711 61.99 30.6361 61.9917 30.4994 61.995C30.3627 61.995 30.2327 61.9967 30.1094 62V61.9C30.2227 61.8933 30.3077 61.88 30.3644 61.86C30.4244 61.84 30.4644 61.8 30.4844 61.74C30.5044 61.68 30.5144 61.59 30.5144 61.47V58.99C30.5144 58.8667 30.5044 58.7767 30.4844 58.72C30.4644 58.66 30.4244 58.62 30.3644 58.6C30.3077 58.5767 30.2227 58.5633 30.1094 58.56V58.46C30.1794 58.4633 30.2711 58.4667 30.3844 58.47C30.4977 58.4733 30.6194 58.475 30.7494 58.475C30.8661 58.475 30.9811 58.4733 31.0944 58.47C31.2111 58.4667 31.3077 58.4633 31.3844 58.46ZM34.294 58.46C34.364 58.4633 34.4557 58.4667 34.569 58.47C34.6823 58.4733 34.794 58.475 34.904 58.475C35.0607 58.475 35.2107 58.4733 35.354 58.47C35.4973 58.4667 35.599 58.465 35.659 58.465C35.929 58.465 36.1523 58.5033 36.329 58.58C36.509 58.6567 36.6423 58.7617 36.729 58.895C36.819 59.025 36.864 59.1717 36.864 59.335C36.864 59.435 36.844 59.5417 36.804 59.655C36.764 59.7683 36.694 59.875 36.594 59.975C36.4973 60.075 36.364 60.1583 36.194 60.225C36.024 60.2883 35.809 60.32 35.549 60.32H35.069V60.22H35.499C35.7357 60.22 35.9157 60.1833 36.039 60.11C36.1657 60.0333 36.2507 59.9333 36.294 59.81C36.3407 59.6833 36.364 59.5433 36.364 59.39C36.364 59.1267 36.3007 58.9233 36.174 58.78C36.0507 58.6333 35.8373 58.56 35.534 58.56C35.3807 58.56 35.2807 58.5883 35.234 58.645C35.1873 58.7017 35.164 58.8167 35.164 58.99V61.47C35.164 61.59 35.174 61.68 35.194 61.74C35.214 61.8 35.2523 61.84 35.309 61.86C35.369 61.88 35.4557 61.8933 35.569 61.9V62C35.4923 61.9933 35.3957 61.99 35.279 61.99C35.1657 61.9867 35.0507 61.985 34.934 61.985C34.804 61.985 34.6823 61.9867 34.569 61.99C34.4557 61.99 34.364 61.9933 34.294 62V61.9C34.4073 61.8933 34.4923 61.88 34.549 61.86C34.609 61.84 34.649 61.8 34.669 61.74C34.689 61.68 34.699 61.59 34.699 61.47V58.99C34.699 58.8667 34.689 58.7767 34.669 58.72C34.649 58.66 34.609 58.62 34.549 58.6C34.4923 58.5767 34.4073 58.5633 34.294 58.56V58.46ZM35.089 60.235C35.269 60.2417 35.4107 60.25 35.514 60.26C35.6173 60.2667 35.7007 60.2733 35.764 60.28C35.8307 60.2867 35.894 60.295 35.954 60.305C36.1773 60.3417 36.3373 60.41 36.434 60.51C36.534 60.6067 36.6073 60.7583 36.654 60.965L36.779 61.475C36.8123 61.6217 36.8457 61.7283 36.879 61.795C36.9157 61.8583 36.9707 61.8883 37.044 61.885C37.1007 61.8817 37.1473 61.8633 37.184 61.83C37.224 61.7967 37.2657 61.7517 37.309 61.695L37.384 61.75C37.314 61.8533 37.2407 61.9333 37.164 61.99C37.0907 62.0433 36.9857 62.07 36.849 62.07C36.7257 62.07 36.6173 62.0333 36.524 61.96C36.4307 61.8867 36.3607 61.7433 36.314 61.53L36.204 61.03C36.174 60.8867 36.139 60.7633 36.099 60.66C36.0623 60.5533 36.009 60.47 35.939 60.41C35.8723 60.35 35.7723 60.32 35.639 60.32H35.099L35.089 60.235ZM41.2867 58.46V58.56C41.2233 58.5733 41.16 58.615 41.0967 58.685C41.0333 58.7517 40.9633 58.8583 40.8867 59.005L39.8767 61.005H39.7917L38.6217 58.845C38.555 58.7217 38.4983 58.645 38.4517 58.615C38.4083 58.5817 38.3683 58.565 38.3317 58.565V58.46C38.3983 58.4633 38.4667 58.4667 38.5367 58.47C38.61 58.4733 38.6883 58.475 38.7717 58.475C38.8817 58.475 38.9983 58.475 39.1217 58.475C39.2483 58.4717 39.365 58.4667 39.4717 58.46V58.565C39.3883 58.565 39.315 58.575 39.2517 58.595C39.1883 58.615 39.1467 58.6517 39.1267 58.705C39.1067 58.7583 39.1217 58.8333 39.1717 58.93L40.0167 60.55L39.9767 60.58L40.6417 59.255C40.735 59.0717 40.78 58.93 40.7767 58.83C40.7767 58.73 40.7383 58.6617 40.6617 58.625C40.585 58.585 40.4767 58.5633 40.3367 58.56V58.46C40.4333 58.4633 40.5317 58.4667 40.6317 58.47C40.7317 58.4733 40.825 58.475 40.9117 58.475C40.9983 58.475 41.07 58.4733 41.1267 58.47C41.1833 58.4667 41.2367 58.4633 41.2867 58.46ZM40.1017 60.48V61.47C40.1017 61.59 40.1117 61.68 40.1317 61.74C40.1517 61.8 40.19 61.84 40.2467 61.86C40.3067 61.88 40.3933 61.8933 40.5067 61.9V62C40.43 61.9933 40.3333 61.99 40.2167 61.99C40.1033 61.9867 39.9883 61.985 39.8717 61.985C39.7417 61.985 39.62 61.9867 39.5067 61.99C39.3933 61.99 39.3017 61.9933 39.2317 62V61.9C39.345 61.8933 39.43 61.88 39.4867 61.86C39.5467 61.84 39.5867 61.8 39.6067 61.74C39.6267 61.68 39.6367 61.59 39.6367 61.47V60.445L39.9067 60.755L40.1017 60.48Z" fill="#8C8C8C"/>
<defs>
<linearGradient id="paint0_linear_52_86" x1="26.9917" y1="7.95596" x2="26.9917" y2="31.3193" gradientUnits="userSpaceOnUse">
<stop stop-color="#827C71"/>
<stop offset="1" stop-color="#E5DFD3"/>
</linearGradient>
<linearGradient id="paint1_linear_52_86" x1="23.826" y1="33.242" x2="30.1445" y2="33.242" gradientUnits="userSpaceOnUse">
<stop stop-color="#FFF3C4"/>
<stop offset="1" stop-color="#96856A"/>
</linearGradient>
<linearGradient id="paint2_linear_52_86" x1="26.9623" y1="30.2121" x2="26.9623" y2="42.1793" gradientUnits="userSpaceOnUse">
<stop stop-color="#EDE5D7"/>
<stop offset="1" stop-color="#716D5B"/>
</linearGradient>
<linearGradient id="paint3_linear_52_86" x1="26.9623" y1="30.2121" x2="26.9623" y2="42.1793" gradientUnits="userSpaceOnUse">
<stop stop-color="#E8DDCA"/>
<stop offset="1" stop-color="#827C71"/>
</linearGradient>
</defs>
</svg>
