<svg width="71" height="72" viewBox="0 0 71 72" fill="none" xmlns="http://www.w3.org/2000/svg">
<path d="M35.4998 0C33.132 0 29.9161 0.55627 27.1757 1.71839C24.4358 2.88083 22.2517 4.61382 21.453 6.76124C21.332 7.08699 21.2252 7.41782 21.1329 7.7528C19.7286 11.3832 22.3393 20.5701 25.3032 26.5649C24.1321 24.8497 22.9712 23.1848 21.9193 21.5322C19.2917 17.4043 17.324 13.1308 18.0414 8.4485C17.1735 7.95754 16.1837 7.70146 14.9665 7.70146C12.881 7.70146 10.6272 8.78881 8.9288 10.4873C7.23046 12.1858 6.1433 14.4402 6.1433 16.5261C6.1433 17.6399 6.53424 18.7927 7.23302 19.9692C8.76293 23.4473 13.2604 28.7175 18.1591 33.4423C15.8887 31.8135 13.5118 30.1387 11.3388 28.4052C7.02961 24.968 3.27679 21.2252 3.2569 16.5631C2.63801 17.1674 2.09227 17.9539 1.6293 18.9164C0.736092 20.775 0.195804 23.1832 0.0446898 25.6006C-0.106103 28.0182 0.130032 30.4493 0.672566 32.3307C1.21526 34.2118 2.09804 35.4306 2.77886 35.7712C2.83233 35.7981 2.88409 35.8282 2.93382 35.8615C8.76069 39.7466 16.4548 40.5681 24.682 41.5382C24.092 40.1199 23.7886 38.5989 23.7895 37.0628C23.7895 30.6112 29.0496 25.3502 35.5 25.3502C41.9504 25.3502 47.2105 30.6112 47.2105 37.0628C47.2105 38.6467 46.8918 40.1578 46.3179 41.5382C54.5451 40.5681 62.2394 39.7466 68.0661 35.8615C68.1159 35.8282 68.1677 35.798 68.2213 35.771C68.9019 35.4306 69.7847 34.2115 70.3275 32.3306C70.8698 30.4493 71.1062 28.0181 70.9553 25.6005C70.8043 23.1828 70.2639 20.7749 69.3703 18.9162C68.9077 17.9536 68.3618 17.1674 67.743 16.5628C67.723 21.2249 63.97 24.9675 59.6612 28.4048C57.488 30.1381 55.1111 31.813 52.8405 33.4417C57.7394 28.7165 62.2369 23.4465 63.7666 19.9683C64.4656 18.7919 64.8565 17.6391 64.8565 16.5251C64.8565 14.4393 63.7693 12.185 62.0711 10.4865C60.3726 8.78881 58.1188 7.70146 56.0333 7.70146C54.8161 7.70146 53.8265 7.95737 52.9584 8.4485C53.6758 13.1308 51.7081 17.4043 49.0805 21.5322C48.0286 23.1848 46.8678 24.8499 45.6966 26.5649C48.6607 20.5701 51.2712 11.3834 49.8667 7.7528C49.7743 7.41781 49.6675 7.08698 49.5465 6.76124C48.7487 4.61606 46.5566 2.88163 43.8112 1.71887C41.0663 0.55611 37.849 0 35.4998 0ZM35.6715 28.4473C34.497 28.4472 33.334 28.6786 32.2489 29.1281C31.1638 29.5776 30.1779 30.2365 29.3474 31.0671C28.5169 31.8977 27.8581 32.8838 27.4086 33.9691C26.9592 35.0543 26.7278 36.2175 26.7278 37.3922C26.73 38.9125 27.1195 40.4071 27.8596 41.735C28.5997 43.0628 29.666 44.1801 30.9577 44.9813C30.57 43.8959 30.3701 42.7518 30.3664 41.5985C30.3665 40.2714 30.6265 38.9572 31.1318 37.7311C31.6371 36.505 32.3777 35.391 33.3113 34.4526C34.2449 33.5142 35.3532 32.7698 36.573 32.2619C37.7928 31.7541 39.1002 31.4927 40.4205 31.4927C41.1525 31.4952 41.882 31.5781 42.5961 31.7398C41.7581 30.7118 40.7021 29.8831 39.5045 29.3136C38.3068 28.7441 36.9976 28.4481 35.6715 28.4471V28.4473ZM25.6976 43.4549C17.0665 44.1833 8.86384 44.706 2.74725 47.5835C2.7035 47.604 2.65874 47.6223 2.61314 47.6384C1.82822 47.9153 1.11725 48.6673 0.621714 49.8798L0.614174 49.8991H0.689089C0.689089 50.6411 1.17901 51.668 2.13029 52.8391C3.00585 53.917 4.20609 55.0757 5.40891 56.2704C5.56951 56.1055 5.73426 55.9447 5.903 55.7881C7.40852 54.3906 9.37156 53.1385 11.5308 51.9233C14.4661 50.2713 17.7688 48.6939 20.6842 47.1708C14.9827 50.7958 9.2352 55.3003 7.33553 58.1804C8.44723 59.0859 10.0585 60.2105 11.7958 61.1411C13.8459 62.2392 16.1327 63.1504 18.0337 63.5842C18.117 63.1414 18.2372 62.7064 18.393 62.2836C19.1255 60.3066 20.4905 58.5592 22.0653 56.814C23.3526 55.387 24.7917 53.9516 26.2082 52.4664H26.2179C23.7487 55.5177 21.2642 60.5256 20.8126 64.0402C25.5621 66.2504 32.9829 66.4253 35.5 66.4253C38.0545 66.4253 45.5649 66.3194 50.1879 64.042C49.7371 60.5274 47.2517 55.5182 44.7823 52.4664H44.7919C46.2084 53.9515 47.6473 55.387 48.9347 56.8138C50.5095 58.5592 51.8745 60.3068 52.6066 62.2835C52.7617 62.7034 52.8814 63.1355 52.9644 63.5754C54.7774 63.1406 56.8994 62.2421 58.8613 61.1518C60.6367 60.1654 62.3055 59.0287 63.5728 58.0445C61.5852 55.16 55.9283 50.7393 50.3154 47.1707C53.231 48.6941 56.5337 50.2715 59.4688 51.9234C61.6281 53.1386 63.5913 54.3908 65.0968 55.7883C65.2656 55.9448 65.4303 56.1056 65.5909 56.2706C66.7935 55.0759 67.9939 53.9171 68.8695 52.8394C69.8208 51.6685 70.3107 50.6416 70.3107 49.8995H70.3856C70.3832 49.8929 70.3806 49.8865 70.3781 49.8803C69.8824 48.6678 69.1717 47.9158 68.3867 47.6388C68.3411 47.6228 68.2963 47.6045 68.2525 47.584C62.1358 44.7065 53.9333 44.1836 45.302 43.4553C44.778 44.2548 44.1588 44.9877 43.4582 45.6379C45.7948 46.3233 47.852 47.3762 49.354 48.8786L47.3125 50.9205C45.2564 48.8634 40.3926 47.4923 35.4998 47.4923C30.6071 47.4923 25.7432 48.8634 23.6871 50.92L21.6456 48.8781C23.1471 47.376 25.204 46.3232 27.54 45.6377C26.84 44.9872 26.2214 44.2543 25.6978 43.4549H25.6976ZM70.8815 54.9324C69.7913 56.226 68.5002 57.4418 67.3207 58.6214C67.3082 58.6343 67.294 58.6474 67.2812 58.6599C67.5257 59.2116 67.6855 59.7914 67.7304 60.4037C69.5238 59.268 70.5491 57.2084 70.8815 54.9324ZM0.118 54.9328C0.450387 57.2087 1.47578 59.268 3.26893 60.4037C3.31337 59.7988 3.46978 59.2255 3.70912 58.68C3.68121 58.6425 3.65073 58.6049 3.6241 58.5672C2.45882 57.4044 1.1912 56.2067 0.118 54.9328ZM64.8534 60.7141C63.5428 61.6967 61.9675 62.7294 60.2639 63.676C58.2221 64.8107 56.0341 65.8148 53.8834 66.342C54.5232 66.4872 55.2314 66.5666 56.0333 66.5666C58.2604 66.5666 60.5815 65.7507 62.2595 64.5667C63.9375 63.3825 64.8563 61.8946 64.8563 60.7657C64.8563 60.7488 64.8539 60.7312 64.8534 60.7141ZM6.16127 61.0307C6.28961 62.1205 7.19003 63.473 8.73999 64.567C10.418 65.7511 12.7392 66.5668 14.9663 66.5668C15.7546 66.5668 16.4524 66.4898 17.0838 66.3492C14.8649 65.827 12.56 64.8266 10.4326 63.6869C8.82934 62.8282 7.36986 61.9408 6.16111 61.0309L6.16127 61.0307ZM21.4018 67.3786C22.0879 68.6179 24.273 69.9437 27.0261 70.7673C29.8103 71.6006 33.0684 72 35.4998 72C37.913 72 41.1722 71.6005 43.9612 70.7671C46.6903 69.9516 48.8652 68.6428 49.5743 67.4176C44.2063 69.3831 37.7803 69.313 35.4998 69.313C33.1811 69.313 26.8003 69.3002 21.4018 67.3785V67.3786Z" fill="#412525"/>
</svg>
