<svg width="81" height="66" viewBox="0 0 81 66" fill="none" xmlns="http://www.w3.org/2000/svg">
<path d="M59.25 63C63.3921 63 66.75 59.6421 66.75 55.5C66.75 51.3579 63.3921 48 59.25 48C55.1079 48 51.75 51.3579 51.75 55.5C51.75 59.6421 55.1079 63 59.25 63Z" fill="#665353" stroke="#362424" stroke-width="5" stroke-linecap="round" stroke-linejoin="round"/>
<path d="M21.75 63C25.8921 63 29.25 59.6421 29.25 55.5C29.25 51.3579 25.8921 48 21.75 48C17.6079 48 14.25 51.3579 14.25 55.5C14.25 59.6421 17.6079 63 21.75 63Z" fill="#665353" stroke="#362424" stroke-width="5" stroke-linecap="round" stroke-linejoin="round"/>
<path d="M36.75 51.75H51.75H36.75ZM46.125 14.25H49.6612C54.5737 14.25 57.0338 14.25 59.115 15.4313C61.2 16.6088 62.5875 18.7875 65.3663 23.1413C67.3163 26.1938 69.3563 28.4138 72.2325 30.3825C75.1275 32.37 76.5075 33.3412 77.2688 34.8975C78 36.39 78 38.1563 78 41.6888C78 46.35 78 48.6787 76.6912 50.16L76.5187 50.3438C75.1425 51.75 72.9713 51.75 68.6363 51.75H66.75" fill="#665353"/>
<path d="M36.75 51.75H51.75M46.125 14.25H49.6612C54.5737 14.25 57.0338 14.25 59.115 15.4313C61.2 16.6088 62.5875 18.7875 65.3663 23.1413C67.3163 26.1938 69.3562 28.4138 72.2325 30.3825C75.1275 32.37 76.5075 33.3412 77.2688 34.8975C78 36.39 78 38.1563 78 41.6888C78 46.35 78 48.6788 76.6912 50.16L76.5187 50.3438C75.1425 51.75 72.9713 51.75 68.6363 51.75H66.75" stroke="#362424" stroke-width="5" stroke-linecap="round" stroke-linejoin="round"/>
<path d="M44.25 14.25L47.9775 23.5725C49.8038 28.1362 50.715 30.42 52.6237 31.71C54.5287 33 56.985 33 61.905 33H74.25M13.7625 51.75C8.68875 51.75 6.15 51.75 4.575 50.1C3 48.4575 3 45.8063 3 40.5V14.25C3 8.9475 3 6.29625 4.575 4.65C6.15 3.00375 8.68875 3 13.7625 3H33.4875C38.5612 3 41.1 3 42.675 4.65C44.25 6.2925 44.25 8.94375 44.25 14.25V51.75H28.11" fill="#665353"/>
<path d="M44.25 14.25L47.9775 23.5725C49.8038 28.1363 50.715 30.42 52.6237 31.71C54.5287 33 56.985 33 61.905 33H74.25M44.25 14.25C44.25 8.94375 44.25 6.2925 42.675 4.65C41.1 3 38.5613 3 33.4875 3H13.7625C8.68875 3 6.15 3.00375 4.575 4.65C3 6.29625 3 8.9475 3 14.25V40.5C3 45.8062 3 48.4575 4.575 50.1C6.15 51.75 8.68875 51.75 13.7625 51.75M44.25 14.25V51.75H28.11" stroke="#362424" stroke-width="5" stroke-linecap="round" stroke-linejoin="round"/>
</svg>
