<svg width="57" height="65" viewBox="0 0 57 65" fill="none" xmlns="http://www.w3.org/2000/svg">
<path d="M28.5 0L57 9.83996V32.5C57 44.1027 49.781 52.2137 43.0464 57.2489C38.984 60.2613 34.5258 62.7156 29.7939 64.5445L29.5459 64.6373L29.4747 64.6626L29.4548 64.6683L29.4462 64.6711C29.4433 64.6711 29.4405 64.6711 28.5 62.0199L27.5567 64.6739L27.5452 64.6683L27.5253 64.6626L27.4541 64.6345L27.2061 64.5445C25.8619 64.0318 24.5403 63.4634 23.2446 62.8408C19.9739 61.2735 16.8627 59.401 13.9536 57.2489C7.2219 52.2137 0 44.1027 0 32.5V9.83996L28.5 0ZM28.5 62.0199L27.5567 64.6739L28.5 65L29.4433 64.6739L28.5 62.0199ZM28.5 59.0061L28.5257 58.9948C32.4691 57.3869 36.1911 55.2946 39.6036 52.7675C45.6969 48.2158 51.3 41.5612 51.3 32.5V13.8322L28.5 5.96021L5.7 13.8322V32.5C5.7 41.5612 11.3031 48.2102 17.3964 52.7703C20.8164 55.3022 24.5472 57.3974 28.5 59.0061ZM45.8052 22.2186L25.6529 42.0982L13.5603 30.1721L17.5931 26.194L25.65 34.1475L41.7724 18.2433L45.8052 22.2186Z" fill="#412525"/>
</svg>
